<?xml version="1.0" standalone="no"?>
<!DOCTYPE svg PUBLIC "-//W3C//DTD SVG 20010904//EN"
 "http://www.w3.org/TR/2001/REC-SVG-20010904/DTD/svg10.dtd">
<svg version="1.0" xmlns="http://www.w3.org/2000/svg"
 width="73.000000pt" height="73.000000pt" viewBox="0 0 73.000000 73.000000"
 preserveAspectRatio="xMidYMid meet">
<metadata>
Created by potrace 1.11, written by Peter Selinger 2001-2013
</metadata>
<g transform="translate(0.000000,73.000000) scale(0.100000,-0.100000)"
fill="#000000" stroke="none">
<path d="M10 365 l0 -365 360 0 360 0 -2 363 -3 362 -357 3 -358 2 0 -365z
m389 -34 c-20 -35 -35 -36 -49 -2 -10 25 -9 34 6 60 l18 30 19 -32 c17 -28 18
-35 6 -56z m-64 -1 c4 -11 17 -28 31 -36 13 -9 21 -20 18 -25 -8 -13 -24 -11
-24 4 0 8 -12 11 -38 9 -35 -3 -39 -1 -55 32 l-17 36 39 0 c31 0 41 -4 46 -20z
m148 -12 c-19 -33 -49 -45 -79 -34 -13 5 -13 10 3 36 14 25 24 30 56 30 l39 0
-19 -32z m-133 -58 c0 -5 -5 -21 -12 -35 -9 -20 -18 -25 -49 -25 l-39 0 17 35
c14 30 22 35 50 35 18 0 33 -4 33 -10z m131 -27 l21 -33 -41 0 c-34 0 -43 4
-55 29 -18 34 -12 43 27 39 19 -2 35 -13 48 -35z m-85 -8 c16 -24 16 -28 -2
-60 l-18 -35 -19 30 c-17 26 -18 35 -7 60 15 37 25 38 46 5z"/>
</g>
</svg>
